<svg xmlns="http://www.w3.org/2000/svg" width="200" height="150" viewBox="0 0 200 150"><rect width="100%" height="100%" fill="#FFF"/>
<path d="M50.13 83.81h15.9v6.11h-23.3V50.15h7.4v33.66Zm32.59-22.55q3.13 0 5.7 1.02 2.58 1.02 4.4 2.89 1.83 1.87 2.82 4.57.99 2.69.99 6.02 0 3.35-.99 6.05-.99 2.69-2.82 4.59-1.82 1.9-4.4 2.92-2.57 1.01-5.7 1.01-3.16 0-5.75-1.01-2.58-1.02-4.41-2.92t-2.83-4.59q-1.01-2.7-1.01-6.05 0-3.33 1.01-6.02 1-2.7 2.83-4.57t4.41-2.89q2.59-1.02 5.75-1.02Zm0 23.85q3.52 0 5.21-2.37 1.69-2.36 1.69-6.93 0-4.56-1.69-6.96-1.69-2.39-5.21-2.39-3.58 0-5.3 2.41-1.71 2.41-1.71 6.94 0 4.54 1.71 6.92 1.72 2.38 5.3 2.38Zm29.42-9.98q1.27 0 2.2-.35.94-.34 1.56-.95.62-.6.93-1.46.32-.85.32-1.86 0-2.09-1.25-3.32-1.25-1.22-3.76-1.22-2.5 0-3.75 1.22-1.25 1.23-1.25 3.32 0 .98.31 1.84.32.85.94 1.47.62.62 1.57.96.95.35 2.18.35Zm7.68 16.05q0-.82-.5-1.34-.49-.52-1.35-.81-.85-.29-1.99-.43-1.14-.14-2.42-.21-1.28-.06-2.64-.12t-2.65-.22q-1.13.63-1.83 1.48-.7.86-.7 1.98 0 .75.37 1.39.37.65 1.18 1.12.81.47 2.1.73 1.3.26 3.17.26 1.89 0 3.27-.29 1.37-.29 2.27-.8.89-.51 1.3-1.21.42-.7.42-1.53Zm-1.35-28.51h8.11v2.53q0 1.21-1.46 1.48l-2.53.47q.58 1.46.58 3.19 0 2.09-.84 3.78t-2.32 2.87q-1.49 1.19-3.51 1.83-2.02.65-4.36.65-.82 0-1.59-.08-.77-.09-1.51-.22-1.32.79-1.32 1.79 0 .85.78 1.25.78.39 2.08.56 1.29.16 2.94.21 1.65.04 3.38.18 1.73.13 3.38.48 1.65.34 2.95 1.08 1.29.74 2.07 2.02.79 1.28.79 3.29 0 1.87-.93 3.63-.92 1.76-2.66 3.14-1.75 1.37-4.29 2.21-2.55.84-5.79.84-3.19 0-5.56-.62-2.36-.62-3.93-1.65-1.57-1.03-2.34-2.38-.77-1.35-.77-2.8 0-1.99 1.2-3.32 1.2-1.33 3.29-2.13-1.13-.58-1.79-1.54-.66-.96-.66-2.53 0-.63.23-1.31.24-.67.69-1.33.45-.66 1.14-1.25t1.62-1.06q-2.14-1.15-3.37-3.08-1.22-1.93-1.22-4.51 0-2.09.84-3.78t2.34-2.89q1.5-1.2 3.54-1.83 2.05-.63 4.47-.63 1.82 0 3.41.37 1.6.37 2.92 1.09Zm24.89-1.41q3.13 0 5.7 1.02 2.57 1.02 4.4 2.89 1.83 1.87 2.82 4.57.99 2.69.99 6.02 0 3.35-.99 6.05-.99 2.69-2.82 4.59-1.83 1.9-4.4 2.92-2.57 1.01-5.7 1.01-3.17 0-5.75-1.01-2.59-1.02-4.42-2.92-1.82-1.9-2.83-4.59-1-2.7-1-6.05 0-3.33 1-6.02 1.01-2.7 2.83-4.57 1.83-1.87 4.42-2.89 2.58-1.02 5.75-1.02Zm0 23.85q3.52 0 5.21-2.37 1.69-2.36 1.69-6.93 0-4.56-1.69-6.96-1.69-2.39-5.21-2.39-3.58 0-5.3 2.41-1.72 2.41-1.72 6.94 0 4.54 1.72 6.92t5.3 2.38Z"/></svg>